<?xml version="1.0" encoding="utf-8"?>
<!-- Generator: Adobe Illustrator 19.0.0, SVG Export Plug-In . SVG Version: 6.00 Build 0)  -->
<svg version="1.1" id="Layer_1" xmlns="http://www.w3.org/2000/svg" xmlns:xlink="http://www.w3.org/1999/xlink" x="0px" y="0px"
	 viewBox="0 0 1080 1080" style="enable-background:new 0 0 1080 1080;" xml:space="preserve">
<style type="text/css">
	.st0{display:none;}
	.st1{display:inline;fill:#ED1C1C;}
	.st2{display:inline;fill:#FFFFFF;}
	.st3{display:inline;}
	.st4{fill:#1071E5;}
	.st5{fill:#FFFFFF;}
	.st6{fill:#999999;}
</style>
<g id="Layer_1_1_">
</g>
<g id="Layer_2" class="st0">
	<circle id="XMLID_1_" class="st1" cx="540" cy="540" r="530.9"/>
</g>
<g id="Layer_3" class="st0">
	<path id="XMLID_14_" class="st2" d="M540,157.1v148.8c129.3,0,234.1,104.8,234.1,234.1S669.3,774.1,540,774.1
		c-64.6,0-123.2-26.2-165.5-68.6L269.2,810.8c69.3,69.3,165,112.1,270.8,112.1c211.5,0,382.9-171.4,382.9-382.9
		S751.5,157.1,540,157.1z"/>
	<polygon id="XMLID_2_" class="st2" points="540,368 351,240 540,112 	"/>
</g>
<g id="Layer_4" class="st0">
	<circle id="XMLID_3_" class="st3" cx="540" cy="540" r="540"/>
</g>
<g id="Layer_5" class="st0">
	<path id="XMLID_4_" class="st2" d="M701.5,833.6L246.4,378.5c-36.5-36.5-36.5-95.7,0-132.2l0,0c36.5-36.5,95.7-36.5,132.2,0
		l455.1,455.1c36.5,36.5,36.5,95.7,0,132.2l0,0C797.1,870.1,738,870.1,701.5,833.6z"/>
	<path id="XMLID_6_" class="st2" d="M246.4,701.5l455.1-455.1c36.5-36.5,95.7-36.5,132.2,0l0,0c36.5,36.5,36.5,95.7,0,132.2
		l-455.2,455c-36.5,36.5-95.7,36.5-132.2,0l0,0C209.9,797.1,209.9,738,246.4,701.5z"/>
</g>
<g id="Layer_6">
	<path class="st4" d="M0,0v1080h1080V0H0z M633.3,862.8L534,755.4l222.6-205.7l-79,293C663.5,850.1,648.7,856.8,633.3,862.8z"/>
</g>
<g id="Layer_7">
	<path class="st5" d="M756.6,549.7l99.3,107.4c-40.2,82.7-99.6,144.6-178.3,185.6L756.6,549.7z"/>
	<polygon class="st5" points="900,417 756.6,549.7 534,755.4 390.5,888 237.3,211.3 	"/>
</g>
<path class="st6" d="M756.6,549.7l-79,293c-14.1,7.4-28.9,14.1-44.3,20.1L534,755.4L756.6,549.7z"/>
</svg>
