<?xml version="1.0" encoding="utf-8"?>
<!-- Generator: Adobe Illustrator 19.0.0, SVG Export Plug-In . SVG Version: 6.00 Build 0)  -->
<svg version="1.1" id="Layer_1" xmlns="http://www.w3.org/2000/svg" xmlns:xlink="http://www.w3.org/1999/xlink" x="0px" y="0px"
	 viewBox="0 350.3 1080 380.7" style="enable-background:new 0 350.3 1080 380.7;" xml:space="preserve">
<style type="text/css">
	.st0{fill:#EF3333;}
</style>
<g id="Layer_1_1_">
</g>
<g>
	<path class="st0" d="M449.7,506c-6.6-3.2-13.9-4.9-21.9-4.9c-11.5,0-21.3,3.7-29.4,11c-8.1,7.3-12.7,17.5-13.9,30.5h86.4
		c0-8.7-1.9-16.1-5.7-22.4C461.5,513.9,456.3,509.2,449.7,506z"/>
	<path class="st0" d="M310.9,498.1c0-10.3-3-18.3-9.1-24c-6.1-5.7-15.4-8.5-27.9-8.5h-33.5v66h33.5c12.3,0,21.6-3,27.7-9.1
		C307.8,516.4,310.9,508.2,310.9,498.1z"/>
	<path class="st0" d="M735,506c-6.6-3.2-13.9-4.9-21.9-4.9c-11.5,0-21.3,3.7-29.4,11c-8.1,7.3-12.7,17.5-13.9,30.5h86.4
		c0-8.7-1.9-16.1-5.7-22.4C746.8,513.9,741.6,509.2,735,506z"/>
	<g>
		
			<image style="overflow:visible;opacity:0.5;" width="1058" height="392" xlink:href="9861DCA5.png"  transform="matrix(1 0 0 1 17.7249 349.7249)">
		</image>
		<g>
			<path class="st0" d="M1018.4,357.5H61.7c-19.7,0-35.6,15.9-35.6,35.6v291.2c0,19.6,15.9,35.5,35.6,35.5h956.6
				c19.7,0,35.6-15.9,35.7-35.5V393.1C1054,373.4,1038,357.5,1018.4,357.5z M309.4,621l-41.5-71.2h-27.5V621h-22.7V446.9h56.2
				c13.2,0,24.3,2.2,33.4,6.7c9.1,4.5,15.9,10.6,20.4,18.2c4.5,7.7,6.7,16.4,6.7,26.2c0,12-3.5,22.6-10.4,31.7
				c-6.9,9.2-17.3,15.2-31.1,18.2l43.7,72.9H309.4z M493.8,561H384.4c0.8,13.5,5.5,24,13.9,31.6c8.4,7.6,18.6,11.4,30.6,11.4
				c9.8,0,18-2.3,24.6-6.9c6.6-4.6,11.2-10.7,13.9-18.4h24.5c-3.7,13.2-11,23.9-22,32.1c-11,8.2-24.7,12.4-41,12.4
				c-13,0-24.6-2.9-34.9-8.7c-10.2-5.8-18.3-14.1-24.1-24.9c-5.8-10.7-8.7-23.2-8.7-37.3c0-14.2,2.8-26.6,8.5-37.2
				c5.7-10.7,13.6-18.9,23.9-24.6c10.2-5.7,22-8.6,35.4-8.6c13,0,24.5,2.8,34.5,8.5c10,5.7,17.7,13.5,23.1,23.4
				c5.4,9.9,8.1,21.1,8.1,33.6C494.5,551.6,494.3,556.2,493.8,561z M616.7,604c-4.2,6-10,10.7-17.6,14.1c-7.6,3.4-16.3,5.1-26.1,5.1
				c-10.5,0-19.9-1.8-28.2-5.4c-8.3-3.6-14.9-8.6-19.7-15c-4.8-6.4-7.5-13.8-8-22.1h23.5c0.7,6.8,3.9,12.4,9.6,16.7
				c5.7,4.3,13.3,6.5,22.6,6.5c8.7,0,15.5-1.9,20.5-5.7c5-3.8,7.5-8.7,7.5-14.5c0-6-2.7-10.4-8-13.4c-5.3-2.9-13.6-5.8-24.7-8.6
				c-10.2-2.7-18.4-5.4-24.9-8.1c-6.4-2.7-11.9-6.8-16.5-12.2c-4.6-5.4-6.9-12.5-6.9-21.4c0-7,2.1-13.4,6.2-19.2
				c4.2-5.8,10.1-10.4,17.7-13.9c7.7-3.4,16.4-5.1,26.2-5.1c15.2,0,27.4,3.8,36.7,11.5c9.3,7.7,14.3,18.2,15,31.5H599
				c-0.5-7.2-3.4-12.9-8.6-17.2c-5.2-4.3-12.3-6.5-21.1-6.5c-8.2,0-14.7,1.7-19.5,5.2c-4.8,3.5-7.2,8.1-7.2,13.7
				c0,4.5,1.5,8.2,4.4,11.1c2.9,2.9,6.6,5.2,11,7c4.4,1.7,10.5,3.7,18.4,5.9c9.8,2.7,17.8,5.3,24,7.9c6.2,2.6,11.4,6.5,15.9,11.6
				c4.4,5.2,6.7,11.9,6.9,20.2C622.9,591.3,620.9,598,616.7,604z M779.1,561H669.7c0.8,13.5,5.5,24,13.9,31.6
				c8.4,7.6,18.6,11.4,30.6,11.4c9.8,0,18-2.3,24.6-6.9c6.6-4.6,11.2-10.7,13.9-18.4h24.5c-3.7,13.2-11,23.9-22,32.1
				c-11,8.2-24.7,12.4-41,12.4c-13,0-24.6-2.9-34.9-8.7c-10.2-5.8-18.3-14.1-24.1-24.9c-5.8-10.7-8.7-23.2-8.7-37.3
				c0-14.2,2.8-26.6,8.5-37.2c5.7-10.7,13.6-18.9,23.9-24.6c10.2-5.7,22-8.6,35.4-8.6c13,0,24.5,2.8,34.5,8.5
				c10,5.7,17.7,13.5,23.1,23.4c5.4,9.9,8.1,21.1,8.1,33.6C779.8,551.6,779.6,556.2,779.1,561z M873.3,502.8h-35.7v80.7
				c0,6.7,1.4,11.4,4.2,14.1c2.8,2.7,7.7,4.1,14.7,4.1h16.7V621h-20.5c-12.7,0-22.2-2.9-28.5-8.7c-6.3-5.8-9.5-15.4-9.5-28.7v-80.7
				h-17.7v-18.7h17.7v-34.5h22.7v34.5h35.7V502.8z"/>
		</g>
	</g>
</g>
</svg>
